<svg width="32" height="32" viewBox="0 0 32 32" fill="none" xmlns="http://www.w3.org/2000/svg">
<path d="M13 25L13.8575 24.4855C13.6768 24.1843 13.3513 24 13 24V25ZM16 30L15.1425 30.5145C15.3232 30.8157 15.6487 31 16 31C16.3513 31 16.6768 30.8157 16.8575 30.5145L16 30ZM19 25V24C18.6487 24 18.3232 24.1843 18.1425 24.4855L19 25ZM3 5C3 4.44772 3.44771 4 4 4V2C2.34315 2 1 3.34314 1 5H3ZM3 23V5H1V23H3ZM4 24C3.44772 24 3 23.5523 3 23H1C1 24.6569 2.34315 26 4 26V24ZM13 24H4V26H13V24ZM12.1425 25.5145L15.1425 30.5145L16.8575 29.4855L13.8575 24.4855L12.1425 25.5145ZM16.8575 30.5145L19.8575 25.5145L18.1425 24.4855L15.1425 29.4855L16.8575 30.5145ZM28 24H19V26H28V24ZM29 23C29 23.5523 28.5523 24 28 24V26C29.6569 26 31 24.6569 31 23H29ZM29 5V23H31V5H29ZM28 4C28.5523 4 29 4.44772 29 5H31C31 3.34315 29.6569 2 28 2V4ZM4 4H28V2H4V4Z" fill="white"/>
<rect x="7" y="9" width="18" height="10" rx="2" stroke="white" stroke-width="2" stroke-linecap="round" stroke-linejoin="round"/>
<path d="M12 13V15" stroke="#2A9AFB" stroke-width="2" stroke-linecap="round" stroke-linejoin="round"/>
<path d="M20 13V15" stroke="#2A9AFB" stroke-width="2" stroke-linecap="round" stroke-linejoin="round"/>
</svg>
